# ProBuilder 5.0.6
# https://unity3d.com/unity/features/worldbuilding/probuilder
# 2023-04-09 오후 8:35:58

mtllib ./TESTProBuilderCube.mtl
o TESTProBuilderCube

g Cube (1)
v 1.366174 -0.05 -5.949229
v 1.366174 0.04999998 -5.949229
v 1.266174 -0.04999998 -5.949229
v 1.266174 0.05000001 -5.949229
v 1.366174 0.04999998 -1.949231
v 1.266174 0.05000001 -1.949231
v 1.366174 -0.05 -1.949231
v 1.266174 -0.04999998 -1.949231
v 2.37874 -0.05000001 0.7390251
v 2.378735 0.05000001 0.7390108
v 1.352685 -0.05000001 -2.080039
v 1.35268 0.05000001 -2.080053
v -1.380036 0.05000001 2.107091
v -2.406091 0.05000001 -0.7119718
v -1.38003 -0.05000001 2.107107
v -2.406085 -0.05000001 -0.7119575
v 4.71102 -0.05000001 3.670787
v 4.71102 0.04999998 3.670787
v 4.787621 -0.04999998 3.606518
v 4.787621 0.05000001 3.606518
v 2.139862 0.04999998 0.6066098
v 2.216477 0.05000001 0.5423346
v 2.139862 -0.05000001 0.6066098
v 2.216477 -0.04999998 0.5423346
v -1.271458 -0.05000001 1.949229
v -1.271458 0.04999998 1.949229
v -1.371465 -0.04999998 1.94924
v -1.371465 0.05000001 1.94924
v -1.271463 0.04999998 5.949236
v -1.371461 0.05000001 5.949226
v -1.271463 -0.05000001 5.949236
v -1.371461 -0.04999998 5.949226
v -2.21648 -0.05000001 -0.480207
v -2.21648 0.04999998 -0.480207
v -2.139879 -0.04999998 -0.544477
v -2.139879 0.05000001 -0.544477
v -4.787634 0.04999998 -3.544371
v -4.711038 0.05000001 -3.608655
v -4.787634 -0.05000001 -3.544371
v -4.711038 -0.04999998 -3.608655

vt -1.366174 -0.05
vt -1.366174 0.04999998
vt -1.266174 -0.04999998
vt -1.266174 0.05000001
vt -1.366174 -5.949229
vt -1.366174 -1.949231
vt -1.266174 -5.949229
vt -1.266174 -1.949231
vt 1.366174 0.04999998
vt 1.366174 -0.05
vt 1.266174 0.05000001
vt 1.266174 -0.04999998
vt 1.366174 -1.949231
vt 1.366174 -5.949229
vt 1.266174 -1.949231
vt 1.266174 -5.949229
vt -5.949229 -0.04999998
vt -5.949229 0.05000001
vt -1.949231 -0.04999998
vt -1.949231 0.05000001
vt 1.949231 -0.05
vt 1.949231 0.04999998
vt 5.949229 -0.05
vt 5.949229 0.04999998
vt 2.545823 -0.05000149
vt 2.545838 0.04999903
vt 5.545808 -0.05000202
vt 5.545823 0.04999851
vt -2.81616 -5.949231
vt -2.81616 -1.949231
vt 0.183826 -5.949231
vt 0.1838251 -1.949231
vt -2.545837 0.05000387
vt -2.545821 -0.04999614
vt -5.545821 0.05000387
vt -5.545805 -0.04999614
vt 2.816174 -1.949229
vt 2.816174 -5.94923
vt -0.1838119 -1.949229
vt -0.1838112 -5.94923
vt -0.9357606 -0.04914979
vt -0.9357606 0.05085093
vt 3.06424 -0.04915049
vt 3.06424 0.05085023
vt -3.064239 -0.04952278
vt -3.064239 0.05047792
vt 0.9357613 -0.04952348
vt 0.9357611 0.05047722
vt 1.118595 -0.04999997
vt 1.118595 0.05
vt 1.218594 -0.04999994
vt 1.218594 0.05000003
vt -1.117853 0.05
vt -1.117853 -0.04999997
vt -1.217853 0.05000003
vt -1.217853 -0.04999994
vt 5.817582 -0.04999998
vt 5.817582 0.05000001
vt 9.81758 -0.04999998
vt 9.81758 0.05000001
vt -9.81756 -0.04999996
vt -9.81756 0.05000002
vt -5.817563 -0.04999996
vt -5.817563 0.05000002
vt -1.366961 -0.04999997
vt -1.366961 0.05
vt -1.266961 -0.04999994
vt -1.266961 0.05000003
vt 1.365488 0.05
vt 1.365488 -0.04999997
vt 1.265488 0.05000003
vt 1.265488 -0.04999994
vt 1.949216 0.05000002
vt 5.949214 0.05000002
vt -1.119237 0.05
vt -1.119237 -0.04999997
vt -1.219237 0.05000003
vt -1.219237 -0.04999994

vn 0 0 -1
vn 2.980235E-07 1 0
vn 0 0 1
vn -1.490118E-07 -1 0
vn -1 0 0
vn 1 0 0
vn 0.9396926 3.624562E-07 -0.3420202
vn -0.9396926 2.899298E-06 0.3420202
vn -0.3420202 -0.0001523637 -0.9396926
vn 0.3420204 0.0001613254 0.9396926
vn 0.6427452 0 0.76608
vn -0.6427112 0 -0.7661086
vn 0.7660459 0 -0.642786
vn -0.7660435 0 0.6427888
vn -0.642862 0 -0.7659821

usemtl Lit
f 3/3/1 4/4/1 2/2/1 1/1/1
f 4/7/2 6/8/2 5/6/2 2/5/2
f 6/11/3 8/12/3 7/10/3 5/9/3
f 8/15/4 3/16/4 1/14/4 7/13/4
f 8/19/5 6/20/5 4/18/5 3/17/5
f 1/23/6 2/24/6 5/22/6 7/21/6
f 11/27/7 12/28/7 10/26/7 9/25/7
f 12/31/2 14/32/2 13/30/2 10/29/2
f 14/35/8 16/36/8 15/34/8 13/33/8
f 16/39/4 11/40/4 9/38/4 15/37/4
f 16/43/9 14/44/9 12/42/9 11/41/9
f 9/47/10 10/48/10 13/46/10 15/45/10
f 19/51/11 20/52/11 18/50/11 17/49/11
f 20/7/2 22/8/2 21/6/2 18/5/2
f 22/55/12 24/56/12 23/54/12 21/53/12
f 24/15/4 19/16/4 17/14/4 23/13/4
f 24/59/13 22/60/13 20/58/13 19/57/13
f 17/63/14 18/64/14 21/62/14 23/61/14
f 27/67/1 28/68/1 26/66/1 25/65/1
f 28/7/2 30/8/2 29/6/2 26/5/2
f 30/71/3 32/72/3 31/70/3 29/69/3
f 32/15/4 27/16/4 25/14/4 31/13/4
f 32/19/5 30/20/5 28/18/5 27/17/5
f 25/23/6 26/74/6 29/73/6 31/21/6
f 35/51/11 36/52/11 34/50/11 33/49/11
f 36/7/2 38/8/2 37/6/2 34/5/2
f 38/77/15 40/78/15 39/76/15 37/75/15
f 40/15/4 35/16/4 33/14/4 39/13/4
f 40/59/13 38/60/13 36/58/13 35/57/13
f 33/63/14 34/64/14 37/62/14 39/61/14

